<svg 
 xmlns="http://www.w3.org/2000/svg"
 xmlns:xlink="http://www.w3.org/1999/xlink"
 width="56px" height="40px">
<path fill-rule="evenodd"  fill="rgb(0, 20, 104)"
 d="M-0.000,-0.000 L56.000,-0.000 L56.000,40.000 L-0.000,40.000 L-0.000,-0.000 Z"/>
<path fill-rule="evenodd"  fill="rgb(255, 255, 255)"
 d="M56.000,40.000 L50.000,40.000 L34.000,27.000 L34.000,40.000 L22.000,40.000 L22.000,27.000 L6.000,40.000 L-0.000,40.000 L-0.000,36.000 L12.000,26.000 L-0.000,26.000 L-0.000,14.000 L12.000,14.000 L-0.000,4.000 L-0.000,-0.000 L6.000,-0.000 L22.000,13.000 L22.000,-0.000 L34.000,-0.000 L34.000,13.000 L50.000,-0.000 L56.000,-0.000 L56.000,4.000 L44.000,14.000 L56.000,14.000 L56.000,26.000 L44.000,26.000 L56.000,36.000 L56.000,40.000 Z"/>
<path fill-rule="evenodd"  fill="rgb(255, 0, 0)"
 d="M53.000,40.000 L36.000,26.000 L41.000,26.000 L56.000,39.000 L56.000,40.000 L53.000,40.000 ZM32.000,40.000 L24.000,40.000 L24.000,24.000 L-0.000,24.000 L-0.000,16.000 L24.000,16.000 L24.000,-0.000 L32.000,-0.000 L32.000,16.000 L56.000,16.000 L56.000,24.000 L32.000,24.000 L32.000,40.000 ZM36.000,14.000 L53.000,-0.000 L56.000,-0.000 L56.000,1.000 L41.000,14.000 L36.000,14.000 ZM-0.000,1.000 L-0.000,-0.000 L3.000,-0.000 L20.000,14.000 L15.000,14.000 L-0.000,1.000 ZM20.000,26.000 L3.000,40.000 L-0.000,40.000 L-0.000,39.000 L15.000,26.000 L20.000,26.000 Z"/>
</svg>