<svg 
 xmlns="http://www.w3.org/2000/svg"
 xmlns:xlink="http://www.w3.org/1999/xlink"
 width="43px" height="8px">
<defs>
<filter id="Filter_0">
    <feFlood flood-color="rgb(244, 125, 66)" flood-opacity="1" result="floodOut" />
    <feComposite operator="atop" in="floodOut" in2="SourceGraphic" result="compOut" />
    <feBlend mode="normal" in="compOut" in2="SourceGraphic" />
</filter>

</defs>
<g filter="url(#Filter_0)">
<path fill-rule="evenodd"  fill="rgb(145, 151, 161)"
 d="M1.003,5.138 L40.570,5.138 L40.570,5.138 L38.742,6.779 C38.633,6.888 38.570,7.013 38.555,7.153 C38.539,7.294 38.578,7.419 38.672,7.528 L38.812,7.716 C38.922,7.825 39.055,7.879 39.211,7.879 C39.367,7.879 39.500,7.825 39.609,7.716 L42.586,5.021 C42.601,5.021 42.609,5.013 42.609,4.997 L42.797,4.810 C42.906,4.716 42.961,4.595 42.961,4.447 C42.961,4.298 42.906,4.169 42.797,4.060 L42.609,3.872 L42.586,3.872 L42.586,3.849 L39.562,1.083 C39.500,1.036 39.434,0.998 39.363,0.966 C39.293,0.935 39.223,0.919 39.152,0.919 C39.082,0.919 39.012,0.935 38.941,0.966 C38.871,0.998 38.812,1.036 38.766,1.083 L38.625,1.271 C38.531,1.380 38.492,1.505 38.508,1.646 C38.523,1.786 38.586,1.911 38.695,2.021 L40.477,3.638 L0.979,3.638 L1.003,5.138 Z"/>
</g>
</svg>