<svg width="20" height="26" viewBox="0 0 20 26" xmlns="http://www.w3.org/2000/svg"><title>Group 31</title><g fill="none" fill-rule="evenodd"><rect fill="#F6A623" width="20" height="26" opacity="0" rx="3"/><path d="M10 4C7 4 4.4 6.5 4.4 9.6c0 2 1 3.6 2.4 4.6C4 15.4 2 18.2 2 21.6h1.6c0-3.6 2.8-6.4 6.4-6.4 3.6 0 6.4 2.8 6.4 6.4H18c0-3.3-2-6.2-4.8-7.4 1.4-1 2.4-2.7 2.4-4.6C15.6 6.6 13 4 10 4zm0 1.6c2.2 0 4 1.8 4 4s-1.8 4-4 4-4-1.8-4-4 1.8-4 4-4z" fill-rule="nonzero" opacity=".7" fill="#FFF"/></g></svg>
